<svg width="200" height="200" viewBox="0 0 200 200" xmlns="http://www.w3.org/2000/svg">
  <rect width="200" height="200" rx="20" fill="#1a1a2e"/>
  <ellipse cx="100" cy="45" rx="50" ry="40" fill="#1a1a1a"/>
  <ellipse cx="100" cy="50" rx="45" ry="35" fill="#2d2d2d"/>
  <ellipse cx="100" cy="80" rx="45" ry="50" fill="#C68642"/>
  <ellipse cx="85" cy="72" rx="9" ry="7" fill="white"/>
  <ellipse cx="115" cy="72" rx="9" ry="7" fill="white"/>
  <circle cx="87" cy="72" r="5" fill="#1a1a1a"/>
  <circle cx="113" cy="72" r="5" fill="#1a1a1a"/>
  <path d="M75 64 Q85 59 95 64" stroke="#1a1a1a" stroke-width="2.5" fill="none"/>
  <path d="M105 64 Q115 59 125 64" stroke="#1a1a1a" stroke-width="2.5" fill="none"/>
  <path d="M88 95 Q100 105 112 95" stroke="#C0392B" stroke-width="2" fill="none"/>
  <path d="M88 93 Q100 101 112 93" fill="#E74C3C" opacity="0.6"/>
  <path d="M100 80 L98 90 L102 90 Z" fill="#B87333"/>
  <circle cx="82" cy="72" r="14" fill="none" stroke="#34495E" stroke-width="2"/>
  <circle cx="118" cy="72" r="14" fill="none" stroke="#34495E" stroke-width="2"/>
  <path d="M96 72 L104 72" stroke="#34495E" stroke-width="2"/>
</svg>
